<?xml version="1.0" standalone="no"?>
<!DOCTYPE svg PUBLIC "-//W3C//DTD SVG 20010904//EN"
 "http://www.w3.org/TR/2001/REC-SVG-20010904/DTD/svg10.dtd">
<svg version="1.0" xmlns="http://www.w3.org/2000/svg"
 width="1280.000000pt" height="1280.000000pt" viewBox="0 0 1280.000000 1280.000000"
 preserveAspectRatio="xMidYMid meet">
<g transform="translate(0.000000,1280.000000) scale(0.100000,-0.100000)"
fill="rgb(228, 228, 228)" stroke="none">
<path d="M6155 11119 c-1432 -105 -2775 -878 -3564 -2051 -39 -58 -71 -108
-71 -111 0 -11 168 -96 275 -140 319 -130 667 -212 1105 -259 164 -17 786 -17
975 0 524 48 884 100 1565 228 1082 203 1652 273 2222 274 632 0 1149 -95
1628 -300 77 -33 145 -60 150 -60 6 0 15 12 20 26 20 53 -15 132 -143 324
-615 918 -1564 1600 -2661 1911 -473 134 -1031 193 -1501 158z"/>
<path d="M9117 7730 c-339 -54 -624 -235 -745 -475 -60 -118 -77 -196 -76
-340 1 -142 10 -186 57 -285 40 -82 140 -184 227 -233 131 -73 278 -101 614
-117 229 -12 344 -25 451 -52 97 -24 223 -81 232 -104 9 -25 -41 -115 -96
-174 -31 -33 -72 -61 -125 -86 -71 -34 -88 -38 -180 -42 -73 -3 -119 0 -166
12 -90 22 -214 85 -285 145 -165 139 -216 165 -342 177 -68 6 -243 -7 -341
-27 l-53 -11 6 -41 c28 -179 107 -323 249 -453 87 -80 151 -121 273 -174 174
-75 370 -110 613 -110 247 0 442 41 625 130 228 112 389 289 464 509 31 91 39
271 17 365 -41 171 -142 301 -291 375 -90 43 -271 95 -393 110 -37 5 -130 18
-207 30 -77 11 -230 27 -340 35 -246 18 -285 30 -332 100 -60 88 -34 153 81
207 96 46 191 62 320 57 185 -9 340 -75 466 -198 56 -56 68 -63 128 -75 119
-25 264 -38 375 -32 101 4 111 7 136 31 60 60 13 209 -121 387 -90 120 -191
202 -286 233 -116 38 -293 83 -422 107 -129 24 -433 34 -533 19z"/>
<path d="M10735 7661 c-11 -5 -29 -19 -40 -31 -20 -22 -20 -34 -18 -519 5
-914 14 -1505 25 -1560 13 -71 72 -133 149 -155 71 -22 203 -20 317 3 116 24
159 49 168 98 7 38 4 256 -21 1333 -15 630 -22 761 -46 814 l-12 26 -251 -1
c-138 0 -260 -4 -271 -8z"/>
<path d="M7265 7653 c-27 -1 -311 -10 -630 -18 -319 -9 -584 -20 -588 -25 -5
-4 -5 -506 0 -1115 l8 -1107 24 -19 c21 -17 42 -19 258 -19 244 0 282 6 297
45 3 9 7 96 7 193 1 97 4 240 8 317 l6 140 45 6 c25 4 230 12 455 18 609 18
668 31 815 180 85 86 143 189 182 326 20 71 23 101 23 270 0 164 -4 203 -23
280 -47 186 -147 336 -276 414 -135 81 -369 124 -611 114z m-30 -543 c147 -17
233 -68 281 -166 45 -93 21 -196 -59 -247 -71 -46 -129 -59 -290 -64 -182 -6
-508 13 -520 30 -4 7 -5 95 -1 197 5 150 9 188 22 203 37 42 32 41 427 55 28
1 90 -3 140 -8z"/>
<path d="M4915 7634 c-346 -6 -953 -38 -1017 -55 -64 -17 -68 -30 -68 -244 0
-196 15 -997 29 -1582 7 -301 10 -334 28 -365 10 -18 30 -38 44 -44 17 -8 262
-9 919 -2 492 5 915 11 939 14 27 4 52 15 67 29 24 24 24 26 24 232 0 178 -3
213 -18 243 -10 20 -27 37 -42 41 -14 4 -304 8 -645 8 -341 1 -630 4 -642 7
-26 7 -53 60 -53 106 1 83 79 176 172 202 74 21 130 22 494 7 349 -15 380 -12
411 35 14 22 15 55 11 255 -3 127 -9 234 -14 239 -5 4 -193 1 -417 -7 -374
-14 -413 -14 -474 1 -36 8 -80 25 -98 36 -69 42 -102 178 -59 237 25 33 37 34
414 52 124 6 376 18 560 26 184 9 341 18 348 20 15 6 18 426 2 456 -24 43 -48
46 -405 51 -187 2 -416 3 -510 2z"/>
<path d="M1689 7591 c-90 -7 -128 -23 -151 -63 -9 -18 -11 -240 -10 -988 2
-964 5 -1076 24 -1138 31 -103 309 -150 463 -79 104 49 152 110 176 225 12 59
12 65 -19 157 -28 82 -31 101 -22 133 25 94 85 144 201 168 62 13 94 14 197 5
173 -15 441 -14 537 3 358 63 546 280 578 665 24 296 -44 557 -186 716 -103
116 -232 174 -431 194 -115 12 -1199 13 -1357 2z m1116 -527 c119 -31 202
-102 229 -195 19 -63 20 -86 5 -145 -25 -97 -127 -138 -414 -164 -133 -13
-333 0 -393 25 -77 33 -131 258 -84 352 38 73 131 129 247 147 64 10 350 -4
410 -20z"/>
<path d="M8295 4369 c-458 -23 -916 -83 -1635 -215 -736 -135 -905 -164 -1225
-208 -480 -67 -675 -81 -1130 -81 -319 0 -431 4 -550 18 -420 50 -763 136
-1083 273 -57 24 -110 44 -118 44 -24 0 -17 -89 12 -161 14 -35 66 -123 115
-195 661 -970 1733 -1684 2919 -1943 493 -108 1011 -128 1515 -61 1116 150
2194 726 2933 1565 180 205 422 541 406 566 -7 12 -150 79 -285 134 -521 211
-1153 300 -1874 264z"/>
</g>
</svg>
